
<svg width="430px" height="715px" viewBox="0 0 430 715" version="1.1" xmlns="http://www.w3.org/2000/svg" xmlns:xlink="http://www.w3.org/1999/xlink">
    <defs>
        <rect id="path-1" x="0" y="0" width="476" height="729"></rect>
        <linearGradient x1="50%" y1="100%" x2="50%" y2="0.0362318841%" id="linearGradient-3">
            <stop stop-color="#808080" stop-opacity="0.25" offset="0%"></stop>
            <stop stop-color="#808080" stop-opacity="0.12" offset="54%"></stop>
            <stop stop-color="#808080" stop-opacity="0.1" offset="100%"></stop>
        </linearGradient>
        <linearGradient x1="33105%" y1="57785%" x2="33105%" y2="52994%" id="linearGradient-4">
            <stop stop-color="#808080" stop-opacity="0.25" offset="0%"></stop>
            <stop stop-color="#808080" stop-opacity="0.12" offset="54%"></stop>
            <stop stop-color="#808080" stop-opacity="0.1" offset="100%"></stop>
        </linearGradient>
    </defs>
    <g id="Page-1" stroke="none" stroke-width="1" fill="none" fill-rule="evenodd">
        <g id="Group-2" transform="translate(-46.000000, -4.000000)">
            <mask id="mask-2" fill="white">
                <use xlink:href="#path-1"></use>
            </mask>
            <g id="Mask"></g>
            <g mask="url(#mask-2)">
                <g transform="translate(45.000000, -10.000000)">
                    <path d="M992,622.36 C982.77716,623.153265 973.498361,623.029324 964.3,621.99 C863.18,610.81 725.48,613.99 613.23,683.54 C457.99,779.71 214.7,697.38 107.38,652.59 C25.38,618.38 -17.19,534.59 8.38,455.94 C8.74,454.83 9.11,453.72 9.5,452.61 C25.59,405.87 57.35,369.29 96.68,349.9 C130.96,333 181.01,297.71 203.28,229.9 C212.48,201.9 225.1,175.56 241.49,152.6 C285.38,91.11 377.26,-0.46 535.28,0.11 C562.985592,0.244221081 590.483613,4.89871957 616.69,13.89 C674.42,33.56 726.56,73.55 766.32,128.99 C791.69,164.35 829.71,197.22 884.14,199.9 C959.68,203.64 1031.77,238.81 1085.85,301.4 C1087.41,303.2 1088.95,305.01 1090.49,306.84 C1186.78,421.55 1119.9,611.18 992,622.36 Z" id="Shape" fill="#6C63FF" fill-rule="nonzero"></path>
                    <g id="Group" opacity="0.7" stroke-width="1" fill="none" fill-rule="evenodd" transform="translate(264.000000, 583.000000)">
                        <circle id="Oval" fill="url(#linearGradient-3)" fill-rule="nonzero" cx="14.46" cy="14.31" r="13.8"></circle>
                    </g>
                    <circle id="Oval" fill="#000000" fill-rule="nonzero" opacity="0.2" cx="278.46" cy="597.31" r="13.18"></circle>
                    <circle id="Oval" fill="#FFFFFF" fill-rule="nonzero" cx="204.11" cy="328.14" r="5.1"></circle>
                    <circle id="Oval" fill="#FFFFFF" fill-rule="nonzero" cx="353.11" cy="650.14" r="2.85"></circle>
                    <circle id="Oval" fill="#FFFFFF" fill-rule="nonzero" cx="294.11" cy="161.14" r="5.1"></circle>
                    <polygon id="Shape" fill="#FFFFFF" fill-rule="nonzero" points="153.94 506.21 149.4 506.21 149.4 501.67 147.55 501.67 147.55 506.21 143.01 506.21 143.01 508.06 147.55 508.06 147.55 512.59 149.4 512.59 149.4 508.06 153.94 508.06"></polygon>
                    <polygon id="Shape" fill="#FFFFFF" fill-rule="nonzero" points="267.94 504.21 263.4 504.21 263.4 499.67 261.55 499.67 261.55 504.21 257.01 504.21 257.01 506.06 261.55 506.06 261.55 510.59 263.4 510.59 263.4 506.06 267.94 506.06"></polygon>
                    <polygon id="Shape" fill="#FFFFFF" fill-rule="nonzero" points="430.94 596.21 426.4 596.21 426.4 591.67 424.55 591.67 424.55 596.21 420.01 596.21 420.01 598.06 424.55 598.06 424.55 602.59 426.4 602.59 426.4 598.06 430.94 598.06"></polygon>
                    <polygon id="Shape" fill="#FFFFFF" fill-rule="nonzero" points="70.97 436.71 68.9 436.71 68.9 434.64 68.06 434.64 68.06 436.71 65.99 436.71 65.99 437.55 68.06 437.55 68.06 439.62 68.9 439.62 68.9 437.55 70.97 437.55"></polygon>
                    <polygon id="Shape" fill="#FFFFFF" fill-rule="nonzero" points="155.97 606.71 153.9 606.71 153.9 604.64 153.06 604.64 153.06 606.71 150.99 606.71 150.99 607.55 153.06 607.55 153.06 609.62 153.9 609.62 153.9 607.55 155.97 607.55"></polygon>
                    <polygon id="Shape" fill="#FFFFFF" fill-rule="nonzero" points="296.97 368.71 294.9 368.71 294.9 366.64 294.06 366.64 294.06 368.71 291.99 368.71 291.99 369.55 294.06 369.55 294.06 371.62 294.9 371.62 294.9 369.55 296.97 369.55"></polygon>
                    <polygon id="Shape" fill="#FFFFFF" fill-rule="nonzero" points="323.97 282.71 321.9 282.71 321.9 280.64 321.06 280.64 321.06 282.71 318.99 282.71 318.99 283.55 321.06 283.55 321.06 285.62 321.9 285.62 321.9 283.55 323.97 283.55"></polygon>
                    <path d="M318.76,410.58 L318.76,410.58 C316.82368,408.019745 314.396375,405.871205 311.62,404.26 L311.62,404.26 C302.884689,399.135128 291.872465,400.045265 284.097053,406.534713 C276.321641,413.024161 273.4567,423.696065 276.936682,433.207095 C280.416663,442.718126 289.492501,449.021031 299.62,448.96 C300.13,448.96 300.62,448.96 301.14,448.91 C309.91727,448.319181 317.667891,442.973612 321.338786,434.978985 C325.009682,426.984358 324.012483,417.622049 318.74,410.58 L318.76,410.58 Z" id="Shape" fill="url(#linearGradient-4)" fill-rule="nonzero"></path>
                    <path d="M322.28,425.01 C322.27747,436.956645 312.99279,446.84542 301.07,447.6 L299.64,447.6 C290.123634,447.59768 281.624521,441.644558 278.370346,432.701875 C275.116172,423.759192 277.801654,413.736081 285.090963,407.618303 C292.380272,401.500525 302.717246,400.594137 310.96,405.35 L310.96,405.35 C313.586036,406.878135 315.878102,408.91855 317.7,411.35 L317.7,411.35 C320.681291,415.278962 322.290335,420.077989 322.28,425.01 Z" id="Shape" fill="#000000" fill-rule="nonzero" opacity="0.2"></path>
                    <path d="M294.06,410.65 C292.890652,411.1479 291.763622,411.739842 290.69,412.42 C289.974253,412.819452 289.356061,413.37275 288.88,414.04 C288.42621,414.743141 288.42621,415.646859 288.88,416.35 C289.551608,417.013007 290.479588,417.349125 291.42,417.27 C292.402719,417.396815 293.401421,417.297629 294.34,416.98 C294.975823,416.666013 295.553973,416.24677 296.05,415.74 L297.99,413.98 C298.67,413.36 299.41,412.52 299.11,411.66 C298.798626,411.019532 298.170176,410.592947 297.46,410.54 C295.786194,410.212194 294.050295,410.518739 292.59,411.4" id="Shape" fill="#000000" fill-rule="nonzero" opacity="0.1"></path>
                    <g id="Group" opacity="0.1" stroke-width="1" fill="none" fill-rule="evenodd" transform="translate(284.000000, 432.000000)">
                        <circle id="Oval" fill="#000000" fill-rule="nonzero" cx="1.93" cy="1.94" r="1.19"></circle>
                    </g>
                    <g id="Group" opacity="0.1" stroke-width="1" fill="none" fill-rule="evenodd" transform="translate(305.000000, 422.000000)">
                        <circle id="Oval" fill="#000000" fill-rule="nonzero" cx="5.16" cy="4.4" r="4.37"></circle>
                    </g>
                    <g id="Group" opacity="0.1" stroke-width="1" fill="none" fill-rule="evenodd" transform="translate(305.000000, 405.000000)">
                        <path d="M12.71,6.37 L12.71,6.37 C12.6848096,9.58004119 10.1374602,12.2015889 6.92946475,12.3189089 C3.72146926,12.4362288 0.989435022,10.0077539 0.729836027,6.80812777 C0.470237032,3.60850164 2.77505038,0.771366341 5.96,0.37 L5.96,0.37 C8.58963665,1.89704897 10.8851802,3.9375321 12.71,6.37 Z" id="Shape" fill="#000000" fill-rule="nonzero"></path>
                    </g>
                    <g id="Group" opacity="0.1" stroke-width="1" fill="none" fill-rule="evenodd" transform="translate(301.000000, 435.000000)">
                        <path d="M17.15,3.04 C13.204524,8.65581425 6.91997512,12.1733955 0.07,12.6 L0.07,11.6 C0.07369593,7.54832107 2.35931475,3.84422777 5.97900958,2.02380882 C9.59870441,0.203389866 13.9351419,0.577114889 17.19,2.99 L17.15,3.04 Z" id="Shape" fill="#000000" fill-rule="nonzero"></path>
                    </g>
                </g>
            </g>
        </g>
    </g>
</svg>